<svg width="20" height="19" viewBox="0 0 20 19" fill="none" xmlns="http://www.w3.org/2000/svg">
<g id="ant-design:star-filled">
<path id="Vector" d="M17.7359 6.55196L12.7769 5.86729L10.5601 1.59786C10.4996 1.48096 10.4 1.38634 10.2769 1.32882C9.96833 1.18409 9.59333 1.30469 9.43903 1.59786L7.22223 5.86729L2.26325 6.55196C2.12653 6.57052 2.00153 6.63175 1.90583 6.72452C1.79013 6.83749 1.72637 6.98948 1.72857 7.14709C1.73077 7.3047 1.79874 7.45503 1.91755 7.56505L5.50544 10.8882L4.65778 15.5807C4.6379 15.6898 4.65062 15.8021 4.69448 15.9047C4.73835 16.0074 4.81161 16.0963 4.90596 16.1614C5.00031 16.2265 5.11197 16.2652 5.22829 16.2731C5.3446 16.2809 5.46091 16.2577 5.56403 16.206L9.99958 13.9905L14.4351 16.206C14.5562 16.2672 14.6968 16.2876 14.8316 16.2653C15.1715 16.2097 15.4 15.9035 15.3414 15.5807L14.4937 10.8882L18.0816 7.56505C18.1793 7.47413 18.2437 7.35538 18.2632 7.2255C18.316 6.90079 18.0777 6.6002 17.7359 6.55196Z" fill="#F8F8F8"/>
</g>
</svg>
